<?xml version="1.0" encoding="utf-8"?>
<!-- Generator: Adobe Illustrator 17.0.0, SVG Export Plug-In . SVG Version: 6.00 Build 0)  -->
<!DOCTYPE svg PUBLIC "-//W3C//DTD SVG 1.1//EN" "http://www.w3.org/Graphics/SVG/1.1/DTD/svg11.dtd">
<svg version="1.1" id="Layer_1" xmlns="http://www.w3.org/2000/svg" xmlns:xlink="http://www.w3.org/1999/xlink" x="0px" y="0px"
	 width="302.823px" height="283.45px" viewBox="0 0 302.823 283.45" enable-background="new 0 0 302.823 283.45"
	 xml:space="preserve">
<path d="M56.192,208.661v49.459l-50,16.667v-49.459L56.192,208.661 M61.192,201.724l-60,20v60l60-20V201.724L61.192,201.724z"/>
<path d="M296.192,168.661v106.126l-50-16.667v-72.792L296.192,168.661 M301.192,161.724l-60,20v80l60,20V161.724L301.192,161.724z"
	/>
<path d="M61.192,26.995l34.998,11.666l0.001,47.976L63.004,73.731l-6.812-2.649v7.309v99.73l-50,16.667V45.328L61.192,26.995
	 M61.192,21.724l-60.001,20v160l60-20V78.391l40,15.556l-0.001-58.889L61.192,21.724L61.192,21.724z"/>
<path d="M296.192,8.661V138.12l-50,16.667V72.391v-8.01l-7.196,3.518l-32.804,16.037l0-45.275L296.192,8.661 M301.192,1.724
	l-100,33.333l0,56.889l40-19.556v89.333l60-20V1.724L301.192,1.724z"/>
<path d="M176.192,48.661V98.12l-25,8.333l-25-8.333V48.661l23.419,7.806l1.581,0.527l1.581-0.527L176.192,48.661 M181.192,41.724
	l-30,10l-30-10v60l30,10l30-10V41.724L181.192,41.724z"/>
<polygon points="21.192,261.724 81.192,241.724 21.192,221.724 "/>
<polygon points="221.192,241.724 281.192,261.724 281.192,221.724 221.192,201.724 "/>
<polygon points="21.192,21.724 21.192,201.724 81.192,221.724 81.192,101.724 141.192,121.724 141.192,61.724 "/>
<polygon points="281.192,61.724 221.192,41.724 161.192,61.724 161.192,121.724 221.192,101.724 221.192,181.724 281.192,201.724 
	"/>
<g>
</g>
<g>
</g>
<g>
</g>
<g>
</g>
<g>
</g>
<g>
</g>
</svg>
